<svg id="Atom_Logo" data-name="Atom/Logo" xmlns="http://www.w3.org/2000/svg" width="105.61" height="26.45" viewBox="0 0 105.61 26.45">
  <path id="Path_297" data-name="Path 297" d="M3.52,19.11v7.61H7.85v.47H3V19.11Z" transform="translate(-2.39 -0.89)" fill="#040000"/>
  <path id="Path_298" data-name="Path 298" d="M8.65,24.82v-1a2.37,2.37,0,0,1,2.5-2.61,2.35,2.35,0,0,1,2.42,2.53v.78H9.2v.35a1.89,1.89,0,0,0,2,2,1.81,1.81,0,0,0,1.8-1.3h.48a2.27,2.27,0,0,1-2.31,1.76,2.36,2.36,0,0,1-2.52-2.51ZM13,24.05V23.7a1.85,1.85,0,0,0-1.89-2.07,1.9,1.9,0,0,0-2,2.15v.27Z" transform="translate(-2.39 -0.89)" fill="#040000"/>
  <path id="Path_299" data-name="Path 299" d="M16.66,27.29c-1,0-2-.42-2-1.65,0-1.43,1.22-1.9,2.72-1.9h1.27v-.48c0-1-.41-1.57-1.51-1.57a1.49,1.49,0,0,0-1.67,1.23H15a2,2,0,0,1,2.24-1.73,1.82,1.82,0,0,1,2,2.07v3.93h-.53V26.3a2.25,2.25,0,0,1-2.05.99Zm0-.48c1.16,0,2-.66,2-1.5V24.19H17.43c-1.29,0-2.15.31-2.15,1.45,0,.8.55,1.17,1.41,1.17Z" transform="translate(-2.39 -0.89)" fill="#040000"/>
  <path id="Path_300" data-name="Path 300" d="M25.55,27.19H25V26.05a2.2,2.2,0,0,1-2.13,1.28,2.36,2.36,0,0,1-2.42-2.55v-1a2.36,2.36,0,0,1,2.42-2.55A2.21,2.21,0,0,1,25,22.41V18.76h.55ZM23,26.88a2,2,0,0,0,2-2.16V23.8a2,2,0,0,0-2-2.16,1.92,1.92,0,0,0-2,2.14v1a1.9,1.9,0,0,0,2,2.1Z" transform="translate(-2.39 -0.89)" fill="#040000"/>
  <path id="Path_301" data-name="Path 301" d="M30,25.67V21.78H29v-.45h1v-1.7h.56v1.7h1.73l-.23.45H30.6v3.89c0,.75.27,1.07,1.07,1.07h.52v.45h-.6A1.36,1.36,0,0,1,30,25.67Z" transform="translate(-2.39 -0.89)" fill="#040000"/>
  <path id="Path_302" data-name="Path 302" d="M34,18.76v3.7a2.21,2.21,0,0,1,4.21,1.05v3.68h-.55V23.58c0-1.19-.57-1.92-1.72-1.92A1.92,1.92,0,0,0,34,23.78v3.41h-.55V18.76Z" transform="translate(-2.39 -0.89)" fill="#040000"/>
  <path id="Path_303" data-name="Path 303" d="M39.5,24.82v-1a2.46,2.46,0,1,1,4.92-.08v.78H40v.35a1.9,1.9,0,0,0,2,2,1.79,1.79,0,0,0,1.82-1.32h.49A2.27,2.27,0,0,1,42,27.33a2.36,2.36,0,0,1-2.5-2.51Zm4.39-.77V23.7A1.86,1.86,0,0,0,42,21.63a1.908,1.908,0,0,0-2,2.15v.27Z" transform="translate(-2.39 -0.89)" fill="#040000"/>
  <path id="Path_304" data-name="Path 304" d="M47.66,21.78v-.45h.92v-.86c0-1.17.54-1.71,1.66-1.71h.7v.46h-.67c-.84,0-1.14.39-1.14,1.21v.9h1.6v.45h-1.6v5.41h-.55V21.78Z" transform="translate(-2.39 -0.89)" fill="#040000"/>
  <path id="Path_305" data-name="Path 305" d="M56,27.19V26a2,2,0,0,1-2.08,1.33A2.06,2.06,0,0,1,51.8,25V21.33h.55v3.61c0,1.19.54,1.92,1.7,1.92A1.9,1.9,0,0,0,56,24.75V21.33h.56v5.86Z" transform="translate(-2.39 -0.89)" fill="#040000"/>
  <path id="Path_306" data-name="Path 306" d="M58.72,25.67V21.78H57.65v-.45h1.07v-1.7h.56v1.7H61l-.23.45h-1.5v3.89c0,.75.27,1.07,1.07,1.07h.52v.45h-.6a1.36,1.36,0,0,1-1.54-1.52Z" transform="translate(-2.39 -0.89)" fill="#040000"/>
  <path id="Path_307" data-name="Path 307" d="M66.29,27.19V26a2,2,0,0,1-2.08,1.33A2.06,2.06,0,0,1,62.09,25V21.33h.55v3.61c0,1.19.54,1.92,1.7,1.92a1.9,1.9,0,0,0,1.91-2.11V21.33h.56v5.86Z" transform="translate(-2.39 -0.89)" fill="#040000"/>
  <path id="Path_308" data-name="Path 308" d="M68.9,21.33v1.45A2,2,0,0,1,71,21.29h.06v.51H71c-1.2,0-2.06.84-2.06,2.45v2.94h-.55V21.33Z" transform="translate(-2.39 -0.89)" fill="#040000"/>
  <path id="Path_309" data-name="Path 309" d="M71.61,24.82v-1a2.46,2.46,0,1,1,4.92-.08v.78H72.16v.35a1.89,1.89,0,0,0,2,2A1.81,1.81,0,0,0,76,25.57h.48a2.27,2.27,0,0,1-2.31,1.76,2.36,2.36,0,0,1-2.56-2.51ZM76,24.05V23.7a1.86,1.86,0,0,0-1.89-2.07,1.9,1.9,0,0,0-2,2.15v.27Z" transform="translate(-2.39 -0.89)" fill="#040000"/>
  <path id="Path_310" data-name="Path 310" d="M12.66,11.34c0,3.09-2.76,4.26-5.75,4.26a13.32,13.32,0,0,1-4.52-.66V12.45a13.48,13.48,0,0,0,4,.8c1.76,0,2.79-.74,2.79-1.56s-.67-1.29-3.2-2.54C5,8.69,2.54,7.85,2.54,4.9c0-2.43,2-4,5.33-4a9.75,9.75,0,0,1,3.84.6V3.86a6.94,6.94,0,0,0-3.26-.92c-1.59,0-2.68.63-2.68,1.76,0,.44.07,1,1.83,1.85,2.14,1,5.06,1.71,5.06,4.79M104.8,1.22V7.05H99.52V1.22H96.3V15.3h3.22V9.47h5.28V15.3H108V1.22ZM70,8.27c0,2.32-.29,4.19-2,5.73a7.36,7.36,0,0,1-9.16,0c-1.73-1.54-2-3.41-2-5.73s.29-4.21,2-5.75a7.39,7.39,0,0,1,9.16,0C69.74,4.06,70,6,70,8.27m-3.37,0c0-1.29,0-3-1-4.06a3.09,3.09,0,0,0-4.44,0c-1,1-1,2.77-1,4.06s0,3,1,4a3.09,3.09,0,0,0,4.44,0c1-1,1-2.74,1-4M50.94,10.21l-2.4-9H45.9l-2.41,9-2-9H38.41L41.54,15.3h3.15l2.53-9.43,2.52,9.43H52.9L56,1.22H52.94ZM32,7.16,29.1,1.22H25.85l4.27,8.39V15.3H33.5V9.48l4.77-8.26H35.18ZM14.28,15.3h3.23V1.22H14.28ZM22.54,1.22,18.39,7.41l3.77,7.89h3.52L21.93,7l3.84-5.76ZM82.87,5.47c0-2.56-2.14-4.25-4.71-4.25H72V15.3h3.08V3.3H77.5a2.06,2.06,0,0,1,2.06,2.2c0,1.09-.84,2.25-3.27,3l3.49,6.84H83.3l-3-6a4.26,4.26,0,0,0,2.6-3.88m12.25-1.9L94.06,1.22h-11l1.06,2.35h3.42V15.3h3.22V3.57Z" transform="translate(-2.39 -0.89)" fill="#0063b2"/>
</svg>
