<?xml version="1.0" encoding="utf-8"?>
<!-- Generator: Adobe Illustrator 25.1.0, SVG Export Plug-In . SVG Version: 6.00 Build 0)  -->
<svg version="1.1" id="Atom_Logo" xmlns="http://www.w3.org/2000/svg" xmlns:xlink="http://www.w3.org/1999/xlink" x="0px" y="0px"
	 viewBox="0 0 105.6 26.5" style="enable-background:new 0 0 105.6 26.5;" xml:space="preserve">
<style type="text/css">
	.st0{fill:#FFFFFF;}
</style>
<path id="Path_310" class="st0" d="M10.3,16.3c0,3.1-2.8,4.3-5.8,4.3c-1.5,0-3.1-0.2-4.5-0.7v-2.5c1.3,0.5,2.6,0.7,4,0.8
	c1.8,0,2.8-0.7,2.8-1.6s-0.7-1.3-3.2-2.5c-1-0.5-3.4-1.3-3.4-4.2c0-2.4,2-4,5.3-4C6.8,5.8,8.1,6,9.3,6.5v2.4c-1-0.6-2.1-0.9-3.2-1
	c-1.6,0-2.7,0.6-2.7,1.8c0,0.4,0.1,1,1.8,1.9C7.4,12.5,10.3,13.2,10.3,16.3 M102.4,6.2V12h-5.3V6.2h-3.2v14.1h3.2v-5.8h5.3v5.8h3.2
	V6.2H102.4z M67.6,13.2c0,2.3-0.3,4.2-2,5.7c-2.7,2.1-6.5,2.1-9.2,0c-1.7-1.5-2-3.4-2-5.7s0.3-4.2,2-5.8c2.7-2.1,6.5-2.1,9.2,0
	C67.3,9,67.6,11,67.6,13.2 M64.2,13.2c0-1.3,0-3-1-4.1C62,7.9,60.1,7.8,58.8,9c0,0,0,0-0.1,0.1c-1,1-1,2.8-1,4.1s0,3,1,4
	c1.2,1.2,3.1,1.3,4.4,0.1c0,0,0,0,0.1-0.1C64.2,16.2,64.2,14.5,64.2,13.2 M48.5,15.2l-2.4-9h-2.6l-2.4,9l-2-9H36l3.1,14.1h3.2
	l2.5-9.4l2.5,9.4h3.2l3.1-14.1h-3.1L48.5,15.2z M29.6,12.1l-2.9-5.9h-3.2l4.3,8.4v5.7h3.4v-5.8L36,6.2h-3.1L29.6,12.1z M11.9,20.3
	h3.2V6.2h-3.2V20.3z M20.2,6.2L16,12.4l3.8,7.9h3.5L19.5,12l3.8-5.8H20.2z M80.5,10.4c0-2.6-2.1-4.3-4.7-4.3h-6.2v14.1h3.1v-12h2.4
	c1.1,0,2.1,0.9,2.1,2.1v0.1c0,1.1-0.8,2.2-3.3,3l3.5,6.8h3.5l-3-6C79.5,13.7,80.5,12.1,80.5,10.4 M92.8,8.5l-1.1-2.3h-11l1.1,2.3
	h3.4v11.7h3.2V8.5H92.8z"/>
</svg>
