<?xml version="1.0" encoding="utf-8"?>
<!-- Generator: Adobe Illustrator 25.1.0, SVG Export Plug-In . SVG Version: 6.00 Build 0)  -->
<svg version="1.1" id="Atom_Logo" xmlns="http://www.w3.org/2000/svg" xmlns:xlink="http://www.w3.org/1999/xlink" x="0px" y="0px"
	 viewBox="0 0 235.4 18.7" style="enable-background:new 0 0 235.4 18.7;" xml:space="preserve">
<style type="text/css">
	.st0{fill:#FFFFFF;}
</style>
<g>
	<path id="Path_310" class="st0" d="M12.7,13.1c0,3.8-3.5,5.3-7.1,5.3c-1.8,0-3.8-0.2-5.5-0.9v-3c1.6,0.7,3.1,0.9,4.9,1
		c2.2,0,3.5-0.9,3.5-2s-0.9-1.6-3.9-3C3.4,9.8,0.4,8.9,0.4,5.4c0-2.9,2.5-4.9,6.5-4.9c1.6-0.1,3.1,0.1,4.7,0.8v2.9
		C10.4,3.4,9,3.1,7.7,3c-2,0-3.3,0.8-3.3,2.2c0,0.5,0.1,1.2,2.2,2.3C9.2,8.4,12.7,9.3,12.7,13.1 M125.5,0.7v7.1H119V0.7h-3.9V18h3.9
		v-7.1h6.5V18h3.9V0.7H125.5z M82.9,9.3c0,2.8-0.3,5.1-2.5,6.9c-3.3,2.6-7.9,2.6-11.3,0c-2.1-1.8-2.5-4.1-2.5-6.9s0.3-5.1,2.5-7.1
		c3.3-2.6,7.9-2.6,11.3,0C82.5,4.2,82.9,6.7,82.9,9.3 M78.7,9.3c0-1.6,0-3.7-1.2-5c-1.5-1.5-3.8-1.6-5.4-0.1c0,0,0,0-0.1,0.1
		c-1.2,1.2-1.2,3.5-1.2,5s0,3.7,1.2,4.9c1.5,1.5,3.8,1.6,5.4,0.1c0,0,0,0,0.1-0.1C78.7,13,78.7,10.9,78.7,9.3 M59.5,11.8L56.6,0.7
		h-3.1l-2.9,11.1L48,0.7h-3.8L48,18h3.9l3-11.5L58,18h3.9l3.9-17.3H62L59.5,11.8z M36.4,8l-3.6-7.3h-3.9L34.2,11V18h4.1v-7.1
		l5.9-10.2h-3.8L36.4,8z M14.7,18h3.9V0.7h-3.9V18z M24.9,0.7l-5.1,7.6l4.7,9.7h4.2L24,7.8l4.7-7.1C28.7,0.7,24.9,0.7,24.9,0.7z
		 M98.7,5.9c0-3.1-2.6-5.3-5.8-5.3h-7.6v17.3h3.8V3.2h2.9c1.3,0,2.6,1.1,2.6,2.6v0.1c0,1.3-1,2.7-4,3.7l4.2,8.4h4.2l-3.7-7.4
		C97.5,9.9,98.7,8,98.7,5.9 M113.8,3.5l-1.3-2.8H99l1.3,2.8h4.1v14.3h3.9V3.5H113.8z"/>
	<g>
		<path class="st0" d="M138.4,17.6V1.6h7.9c1.3,0,2.3,0.3,3.2,0.8s1.5,1.2,1.9,2.1c0.4,0.9,0.6,1.8,0.6,2.9c0,1.1-0.2,2.1-0.7,2.9
			c-0.5,0.8-1.1,1.5-2,2c-0.9,0.5-1.9,0.7-3.1,0.7h-3.8v4.7H138.4z M142.4,9.8h2.9c0.8,0,1.5-0.2,1.9-0.7c0.4-0.5,0.6-1.1,0.6-1.8
			c0-0.8-0.2-1.5-0.6-1.9c-0.4-0.5-1-0.7-1.8-0.7h-3V9.8z"/>
		<path class="st0" d="M156.8,17.9c-0.7,0-1.4-0.1-2.1-0.4c-0.6-0.3-1.2-0.7-1.5-1.2c-0.4-0.6-0.6-1.3-0.6-2.1
			c0-1.2,0.4-2.2,1.2-2.9c0.8-0.7,2.1-1,3.7-1h3.3V10c0-0.6-0.2-1-0.6-1.3c-0.4-0.3-1.1-0.4-2.2-0.4c-1.3,0-2.7,0.2-4,0.6V6.3
			c0.6-0.2,1.3-0.4,2.1-0.6c0.8-0.2,1.7-0.2,2.7-0.2c1.8,0,3.3,0.4,4.3,1.1s1.6,1.9,1.6,3.6v7.4h-3.5l-0.2-1c-0.4,0.4-1,0.7-1.7,0.9
			C158.6,17.8,157.8,17.9,156.8,17.9z M158,15.4c0.6,0,1.2-0.1,1.6-0.3c0.5-0.2,0.8-0.5,1.1-0.8v-1.7H158c-1.2,0-1.8,0.5-1.8,1.4
			c0,0.4,0.1,0.8,0.4,1C156.9,15.3,157.4,15.4,158,15.4z"/>
		<path class="st0" d="M167.1,17.6V0.8h4v8.8l3.9-3.8h4.6l-4.7,4.9l5,6.9h-4.3l-3.3-4.8l-1.2,1.1v3.6H167.1z"/>
		<path class="st0" d="M181.3,17.6V8.8h-1.7l0.3-3h5.4v11.8H181.3z M181,3.9v-3h4.4v3H181z"/>
		<path class="st0" d="M192.3,17.9c-0.9,0-1.8-0.1-2.7-0.2c-0.8-0.1-1.5-0.3-2-0.5v-3.1c0.6,0.3,1.3,0.4,2,0.6
			c0.8,0.1,1.4,0.2,2,0.2c0.7,0,1.2,0,1.6-0.1c0.3-0.1,0.5-0.2,0.5-0.5c0-0.3-0.3-0.6-0.8-0.7c-0.5-0.2-1.3-0.4-2.2-0.7
			c-1.1-0.4-1.9-0.8-2.5-1.3c-0.6-0.5-0.8-1.3-0.8-2.3c0-1.2,0.4-2.1,1.3-2.7c0.9-0.6,2.3-0.9,4.2-0.9c0.7,0,1.5,0.1,2.2,0.2
			c0.7,0.1,1.3,0.2,1.8,0.4v3c-0.5-0.2-1-0.4-1.6-0.5c-0.6-0.1-1.1-0.2-1.6-0.2c-0.6,0-1.1,0-1.6,0.1c-0.4,0.1-0.6,0.3-0.6,0.5
			c0,0.3,0.2,0.5,0.7,0.7c0.5,0.1,1.1,0.3,2,0.6c0.9,0.3,1.7,0.6,2.2,0.9c0.5,0.3,0.9,0.7,1.1,1.2c0.2,0.4,0.3,1,0.3,1.7
			c0,1.2-0.5,2.1-1.4,2.7C195.5,17.6,194.1,17.9,192.3,17.9z"/>
		<path class="st0" d="M204.4,17.9c-1.5,0-2.5-0.4-3.2-1.1c-0.7-0.7-1-1.8-1-3.1V8.8h-1.6v-3h1.6V3.3l4-1.1v3.5h2.9l-0.2,3h-2.7v4.5
			c0,0.6,0.1,1,0.4,1.2c0.3,0.2,0.7,0.3,1.3,0.3c0.5,0,1-0.1,1.5-0.3v2.7C206.5,17.7,205.5,17.9,204.4,17.9z"/>
		<path class="st0" d="M212.5,17.9c-0.7,0-1.4-0.1-2.1-0.4c-0.6-0.3-1.2-0.7-1.5-1.2c-0.4-0.6-0.6-1.3-0.6-2.1
			c0-1.2,0.4-2.2,1.2-2.9c0.8-0.7,2.1-1,3.7-1h3.3V10c0-0.6-0.2-1-0.6-1.3c-0.4-0.3-1.1-0.4-2.2-0.4c-1.3,0-2.7,0.2-4,0.6V6.3
			c0.6-0.2,1.3-0.4,2.1-0.6c0.8-0.2,1.7-0.2,2.7-0.2c1.8,0,3.3,0.4,4.3,1.1s1.6,1.9,1.6,3.6v7.4h-3.5l-0.2-1c-0.4,0.4-1,0.7-1.7,0.9
			S213.5,17.9,212.5,17.9z M213.8,15.4c0.6,0,1.2-0.1,1.6-0.3c0.5-0.2,0.8-0.5,1.1-0.8v-1.7h-2.8c-1.2,0-1.8,0.5-1.8,1.4
			c0,0.4,0.1,0.8,0.4,1C212.7,15.3,213.2,15.4,213.8,15.4z"/>
		<path class="st0" d="M222.9,17.6V5.8h3.7l0.1,1c0.5-0.3,1.1-0.6,1.8-0.9s1.5-0.4,2.3-0.4c1.5,0,2.6,0.4,3.3,1.1
			c0.7,0.7,1,1.9,1,3.4v7.6h-4v-7.3c0-0.7-0.1-1.1-0.4-1.4s-0.8-0.4-1.5-0.4c-0.4,0-0.9,0.1-1.3,0.3c-0.4,0.2-0.8,0.4-1.1,0.7v8.1
			H222.9z"/>
	</g>
</g>
</svg>
